<?xml version="1.0" encoding="UTF-8" standalone="no"?>
<!-- Created with Inkscape (http://www.inkscape.org/) -->

<svg
   xmlns:dc="http://purl.org/dc/elements/1.1/"
   xmlns:cc="http://creativecommons.org/ns#"
   xmlns:rdf="http://www.w3.org/1999/02/22-rdf-syntax-ns#"
   xmlns:svg="http://www.w3.org/2000/svg"
   xmlns="http://www.w3.org/2000/svg"
   xmlns:xlink="http://www.w3.org/1999/xlink"
   xmlns:sodipodi="http://sodipodi.sourceforge.net/DTD/sodipodi-0.dtd"
   xmlns:inkscape="http://www.inkscape.org/namespaces/inkscape"
   width="63.999989"
   height="63.99966"
   viewBox="0 0 63.999989 63.999662"
   id="svg2"
   version="1.1"
   inkscape:version="0.91 r13725"
   sodipodi:docname="icon.svg"
   inkscape:export-filename="/home/harbaum/projekte/private_stuff/txt/apps/wedo/icon.png"
   inkscape:export-xdpi="90"
   inkscape:export-ydpi="90">
  <defs
     id="defs4">
    <marker
       inkscape:stockid="Arrow1Send"
       orient="auto"
       refY="0.0"
       refX="0.0"
       id="Arrow1Send"
       style="overflow:visible;">
      <path
         id="path3781"
         d="M 0.0,0.0 L 5.0,-5.0 L -12.5,0.0 L 5.0,5.0 L 0.0,0.0 z "
         style="fill-rule:evenodd;stroke:#000000;stroke-width:1.0pt;"
         transform="scale(0.2) rotate(180) translate(6,0)" />
    </marker>
    <marker
       inkscape:stockid="Arrow1Sstart"
       orient="auto"
       refY="0.0"
       refX="0.0"
       id="Arrow1Sstart"
       style="overflow:visible">
      <path
         id="path3778"
         d="M 0.0,0.0 L 5.0,-5.0 L -12.5,0.0 L 5.0,5.0 L 0.0,0.0 z "
         style="fill-rule:evenodd;stroke:#000000;stroke-width:1.0pt"
         transform="scale(0.2) translate(6,0)" />
    </marker>
    <marker
       inkscape:stockid="Arrow1Mstart"
       orient="auto"
       refY="0.0"
       refX="0.0"
       id="Arrow1Mstart"
       style="overflow:visible">
      <path
         id="path3772"
         d="M 0.0,0.0 L 5.0,-5.0 L -12.5,0.0 L 5.0,5.0 L 0.0,0.0 z "
         style="fill-rule:evenodd;stroke:#000000;stroke-width:1.0pt"
         transform="scale(0.4) translate(10,0)" />
    </marker>
    <marker
       inkscape:stockid="Arrow1Lstart"
       orient="auto"
       refY="0.0"
       refX="0.0"
       id="Arrow1Lstart"
       style="overflow:visible">
      <path
         id="path3766"
         d="M 0.0,0.0 L 5.0,-5.0 L -12.5,0.0 L 5.0,5.0 L 0.0,0.0 z "
         style="fill-rule:evenodd;stroke:#000000;stroke-width:1.0pt"
         transform="scale(0.8) translate(12.5,0)" />
    </marker>
    <linearGradient
       id="linearGradient4159-2"
       inkscape:collect="always">
      <stop
         style="stop-color:#ababff;stop-opacity:1"
         offset="0"
         id="stop4219" />
      <stop
         id="stop4189"
         offset="1"
         style="stop-color:#0000b0;stop-opacity:1" />
    </linearGradient>
    <radialGradient
       inkscape:collect="always"
       xlink:href="#linearGradient4159-2"
       id="radialGradient4165"
       cx="9"
       cy="1028.1622"
       fx="9"
       fy="1028.1622"
       r="13"
       gradientTransform="matrix(0.60007075,0,0,0.60391037,-0.07462063,404.55432)"
       gradientUnits="userSpaceOnUse"
       spreadMethod="pad" />
  </defs>
  <sodipodi:namedview
     id="base"
     pagecolor="#ffffff"
     bordercolor="#666666"
     borderopacity="1.0"
     inkscape:pageopacity="0.0"
     inkscape:pageshadow="2"
     inkscape:zoom="6.492424"
     inkscape:cx="38.362339"
     inkscape:cy="25.923975"
     inkscape:document-units="px"
     inkscape:current-layer="g3679"
     showgrid="true"
     units="px"
     inkscape:window-width="1280"
     inkscape:window-height="965"
     inkscape:window-x="1280"
     inkscape:window-y="0"
     inkscape:window-maximized="1"
     fit-margin-top="0"
     fit-margin-left="0"
     fit-margin-right="0"
     fit-margin-bottom="0">
    <inkscape:grid
       type="xygrid"
       id="grid3336"
       empspacing="5"
       visible="true"
       enabled="true"
       snapvisiblegridlinesonly="true"
       originx="-7.0548232e-06px"
       originy="-3.6406121e-05px" />
  </sodipodi:namedview>
  <metadata
     id="metadata7">
    <rdf:RDF>
      <cc:Work
         rdf:about="">
        <dc:format>image/svg+xml</dc:format>
        <dc:type
           rdf:resource="http://purl.org/dc/dcmitype/StillImage" />
        <dc:title />
      </cc:Work>
    </rdf:RDF>
  </metadata>
  <g
     inkscape:label="Layer 1"
     inkscape:groupmode="layer"
     id="layer1"
     transform="translate(-7.0548234e-6,-988.3625)">
    <ellipse
       style="fill:url(#radialGradient4165);fill-opacity:1;fill-rule:nonzero;stroke:#ffffff;stroke-width:0.61390913;stroke-miterlimit:4;stroke-opacity:1;stroke-dasharray:none"
       id="path3357"
       cx="15.899113"
       cy="1036.4242"
       rx="15.34031"
       ry="15.376954"
       sodipodi:cx="15.899113"
       sodipodi:cy="1036.4242"
       sodipodi:rx="15.34031"
       sodipodi:ry="15.376954"
       transform="matrix(2.0451335,0,0,2.0402492,-0.51580639,-1094.2013)" />
    <g
       id="g3679"
       transform="matrix(0.14692568,0,0,0.14692568,-24.633304,956.94039)">
      <title
         id="title3681">Layer 1</title>
      <g
         id="g3164"
         transform="matrix(5.72445,0,0,5.72445,-1262.68,-2786.68)"
         style="fill:#c48a00;fill-opacity:1">
        <path
           d="m 258.70429,550.06476 0,22.50104 25.18099,10.17999 0,-22.50202 -25.18099,-10.17901 z"
           id="path3166"
           inkscape:connector-curvature="0"
           style="fill:#c48a00;fill-opacity:1" />
      </g>
      <g
         id="g3168"
         transform="matrix(5.72445,0,0,5.72445,-1262.68,-2786.68)"
         style="fill:#ffc02d;fill-opacity:1">
        <path
           d="m 314.69028,572.94281 0,-21.76001 -30.939,9.19501 0,22.50097 30.939,-9.93597 z"
           id="path3170"
           inkscape:connector-curvature="0"
           style="fill:#ffc02d;fill-opacity:1" />
      </g>
      <g
         id="g3172"
         transform="matrix(5.72445,0,0,5.72445,-1262.68,-2786.68)"
         style="fill:#efa900;fill-opacity:1">
        <path
           d="m 258.70429,550.33276 31.19201,-9.19195 24.79398,10.04199 -30.805,9.46198 -25.18099,-10.31202 z"
           id="path3174"
           inkscape:connector-curvature="0"
           style="fill:#efa900;fill-opacity:1" />
      </g>
      <g
         id="g3176"
         transform="matrix(5.72445,0,0,5.72445,-1262.68,-2786.68)"
         style="fill:#c48a00;fill-opacity:1">
        <path
           d="m 279.0643,551.67078 0,4.55401 c 2.40997,2.14301 10.71298,2.01001 12.72299,-0.268 l 0,-4.68799 -12.72299,0.40198 z"
           id="path3178"
           inkscape:connector-curvature="0"
           style="fill:#c48a00;fill-opacity:1" />
      </g>
      <g
         id="g3180"
         transform="matrix(5.72445,0,0,5.72445,-1262.68,-2786.68)"
         style="fill:#ffc12d;fill-opacity:1">
        <path
           d="m 279.0643,551.33679 c 0,-0.85004 2.84799,-1.54004 6.36099,-1.54004 3.51401,0 6.362,0.69001 6.362,1.54004 0,0.85101 -2.84799,1.53998 -6.362,1.53998 -3.513,0 -6.36099,-0.68897 -6.36099,-1.53998 z"
           id="path3182"
           inkscape:connector-curvature="0"
           style="fill:#ffc12d;fill-opacity:1" />
      </g>
      <g
         id="g3188"
         transform="matrix(5.72445,0,0,5.72445,-1262.68,-2786.68)"
         style="fill:#c48a00;fill-opacity:1">
        <path
           d="m 295.28366,547.0498 0,4.55396 c 2.41098,2.14404 10.71399,2.01001 12.72299,-0.26697 l 0,-4.68799 -12.72299,0.401 z"
           id="path3190"
           inkscape:connector-curvature="0"
           style="fill:#c48a00;fill-opacity:1" />
      </g>
      <g
         id="g3192"
         transform="matrix(5.72445,0,0,5.72445,-1262.68,-2786.68)"
         style="fill:#ffc12d;fill-opacity:1">
        <path
           d="m 294.9343,546.7168 c 0,-0.85102 2.84799,-1.54004 6.362,-1.54004 3.513,0 6.36099,0.68902 6.36099,1.54004 0,0.84997 -2.84799,1.53998 -6.36099,1.53998 -3.51401,0 -6.362,-0.69001 -6.362,-1.53998 z"
           id="path3194"
           inkscape:connector-curvature="0"
           style="fill:#ffc12d;fill-opacity:1" />
      </g>
      <g
         id="g3200"
         transform="matrix(5.72445,0,0,5.72445,-1262.68,-2786.68)"
         style="fill:#c48a00;fill-opacity:1">
        <path
           d="m 281.7453,541.49481 0,4.55396 c 2.41098,2.143 10.71399,2.00903 12.72299,-0.26801 l 0,-4.68799 -12.72299,0.40204 z"
           id="path3202"
           inkscape:connector-curvature="0"
           style="fill:#c48a00;fill-opacity:1" />
      </g>
      <g
         id="g3204"
         transform="matrix(5.72445,0,0,5.72445,-1262.68,-2786.68)"
         style="fill:#ffc12d;fill-opacity:1">
        <path
           d="m 281.7453,541.16077 c 0,-0.84998 2.84799,-1.53998 6.362,-1.53998 3.513,0 6.36099,0.69 6.36099,1.53998 0,0.85101 -2.84799,1.54004 -6.36099,1.54004 -3.51401,0 -6.362,-0.68903 -6.362,-1.54004 z"
           id="path3206"
           inkscape:connector-curvature="0"
           style="fill:#ffc12d;fill-opacity:1" />
      </g>
      <g
         id="g3212"
         transform="matrix(5.72445,0,0,5.72445,-1262.68,-2786.68)"
         style="fill:#c48a00;fill-opacity:1">
        <path
           d="m 266.14328,545.98279 0,4.55401 c 2.41101,2.14301 10.71402,2.00898 12.72299,-0.268 l 0,-4.68799 -12.72299,0.40198 z"
           id="path3214"
           inkscape:connector-curvature="0"
           style="fill:#c48a00;fill-opacity:1" />
      </g>
      <g
         id="g3216"
         transform="matrix(5.72445,0,0,5.72445,-1262.68,-2786.68)"
         style="fill:#ffc12d;fill-opacity:1">
        <path
           d="m 266.14328,545.6488 c 0,-0.85101 2.84799,-1.54003 6.362,-1.54003 3.513,0 6.36099,0.68902 6.36099,1.54003 0,0.85096 -2.84799,1.53998 -6.36099,1.53998 -3.51401,0 -6.362,-0.68902 -6.362,-1.53998 z"
           id="path3218"
           inkscape:connector-curvature="0"
           style="fill:#ffc12d;fill-opacity:1" />
      </g>
      <g
         transform="matrix(5.7244485,0,0,5.7244485,-582.68175,-2300.9683)"
         id="g2860"
         style="fill:#f5fa40">
        <path
           id="path2862"
           d=""
           inkscape:connector-curvature="0" />
      </g>
      <g
         transform="matrix(5.7244485,0,0,5.7244485,-582.68175,-2300.9683)"
         id="g2872"
         style="fill:#f5fa40">
        <path
           id="path2874"
           d=""
           inkscape:connector-curvature="0" />
      </g>
      <g
         transform="matrix(5.7244485,0,0,5.7244485,-582.68175,-2300.9683)"
         id="g2884"
         style="fill:#f5fa40">
        <path
           id="path2886"
           d=""
           inkscape:connector-curvature="0" />
      </g>
      <g
         transform="matrix(5.7244485,0,0,5.7244485,-582.68175,-2300.9683)"
         id="g2896"
         style="fill:#f5fa40">
        <path
           id="path2898"
           d=""
           inkscape:connector-curvature="0" />
      </g>
      <g
         transform="matrix(5.7244485,0,0,5.7244485,-582.68175,-2300.9683)"
         id="g2908"
         style="fill:#f5fa40">
        <path
           id="path2910"
           d=""
           inkscape:connector-curvature="0" />
      </g>
      <g
         transform="matrix(5.7244485,0,0,5.7244485,-582.68175,-2300.9683)"
         id="g2920"
         style="fill:#f5fa40">
        <path
           id="path2922"
           d=""
           inkscape:connector-curvature="0" />
      </g>
      <g
         transform="matrix(5.7244485,0,0,5.7244485,-582.68175,-2300.9683)"
         id="g2932"
         style="fill:#f5fa40">
        <path
           id="path2934"
           d=""
           inkscape:connector-curvature="0" />
      </g>
      <g
         transform="matrix(5.7244485,0,0,5.7244485,-582.68175,-2300.9683)"
         id="g2944"
         style="fill:#f5fa40">
        <path
           id="path2946"
           d=""
           inkscape:connector-curvature="0" />
      </g>
      <g
         transform="matrix(5.7244485,0,0,5.7244485,-582.68175,-2300.9683)"
         id="g2968"
         style="fill:#ff212c">
        <path
           id="path2970"
           d=""
           inkscape:connector-curvature="0" />
      </g>
      <g
         transform="matrix(5.7244485,0,0,5.7244485,-582.68175,-2300.9683)"
         id="g2980"
         style="fill:#ff212c">
        <path
           id="path2982"
           d=""
           inkscape:connector-curvature="0" />
      </g>
      <g
         transform="matrix(5.7244485,0,0,5.7244485,-582.68175,-2300.9683)"
         id="g2992"
         style="fill:#ff212c">
        <path
           id="path2994"
           d=""
           inkscape:connector-curvature="0" />
      </g>
      <g
         transform="matrix(5.7244485,0,0,5.7244485,-582.68175,-2300.9683)"
         id="g3004"
         style="fill:#ff212c">
        <path
           id="path3006"
           d=""
           inkscape:connector-curvature="0" />
      </g>
      <g
         transform="matrix(5.7244485,0,0,5.7244485,-582.68175,-2300.9683)"
         id="g3016"
         style="fill:#ff212c">
        <path
           id="path3018"
           d=""
           inkscape:connector-curvature="0" />
      </g>
      <g
         transform="matrix(5.7244485,0,0,5.7244485,-582.68175,-2300.9683)"
         id="g3028"
         style="fill:#ff212c">
        <path
           id="path3030"
           d=""
           inkscape:connector-curvature="0" />
      </g>
      <g
         transform="matrix(5.7244485,0,0,5.7244485,-582.68175,-2300.9683)"
         id="g3040"
         style="fill:#ff212c">
        <path
           id="path3042"
           d=""
           inkscape:connector-curvature="0" />
      </g>
      <g
         transform="matrix(5.7244485,0,0,5.7244485,-582.68175,-2300.9683)"
         id="g3052"
         style="fill:#ff212c">
        <path
           id="path3054"
           d=""
           inkscape:connector-curvature="0" />
      </g>
      <g
         transform="matrix(5.7244485,0,0,5.7244485,-582.68175,-2300.9683)"
         id="g3076"
         style="fill:#2da6ff">
        <path
           id="path3078"
           d=""
           inkscape:connector-curvature="0" />
      </g>
      <g
         transform="matrix(5.7244485,0,0,5.7244485,-582.68175,-2300.9683)"
         id="g3088"
         style="fill:#2da6ff">
        <path
           id="path3090"
           d=""
           inkscape:connector-curvature="0" />
      </g>
      <g
         transform="matrix(5.7244485,0,0,5.7244485,-582.68175,-2300.9683)"
         id="g3100"
         style="fill:#2da6ff">
        <path
           id="path3102"
           d=""
           inkscape:connector-curvature="0" />
      </g>
      <g
         transform="matrix(5.7244485,0,0,5.7244485,-582.68175,-2300.9683)"
         id="g3112"
         style="fill:#2da6ff">
        <path
           id="path3114"
           d=""
           inkscape:connector-curvature="0" />
      </g>
      <g
         transform="matrix(5.7244485,0,0,5.7244485,-582.68175,-2300.9683)"
         id="g3124"
         style="fill:#2da6ff">
        <path
           id="path3126"
           d=""
           inkscape:connector-curvature="0" />
      </g>
      <g
         transform="matrix(5.7244485,0,0,5.7244485,-582.68175,-2300.9683)"
         id="g3136"
         style="fill:#2da6ff">
        <path
           id="path3138"
           d=""
           inkscape:connector-curvature="0" />
      </g>
      <g
         transform="matrix(5.7244485,0,0,5.7244485,-582.68175,-2300.9683)"
         id="g3148"
         style="fill:#2da6ff">
        <path
           id="path3150"
           d=""
           inkscape:connector-curvature="0" />
      </g>
      <g
         transform="matrix(5.7244485,0,0,5.7244485,-582.68175,-2300.9683)"
         id="g3160"
         style="fill:#2da6ff">
        <path
           id="path3162"
           d=""
           inkscape:connector-curvature="0" />
      </g>
      <g
         transform="matrix(5.7244485,0,0,5.7244485,-582.68175,-2300.9683)"
         id="g3184"
         style="fill:#2da6ff">
        <path
           id="path3186"
           d=""
           inkscape:connector-curvature="0" />
      </g>
      <g
         transform="matrix(5.7244485,0,0,5.7244485,-582.68175,-2300.9683)"
         id="g3196"
         style="fill:#2da6ff">
        <path
           id="path3198"
           d=""
           inkscape:connector-curvature="0" />
      </g>
      <g
         transform="matrix(5.7244485,0,0,5.7244485,-582.68175,-2300.9683)"
         id="g3208"
         style="fill:#2da6ff">
        <path
           id="path3210"
           d=""
           inkscape:connector-curvature="0" />
      </g>
      <g
         transform="matrix(5.72445,0,0,5.72445,-582.682,-2300.97)"
         id="g3220"
         style="fill:#2da6ff">
        <path
           transform="translate(-4.83572,-10.4934)"
           id="path3222"
           d=""
           inkscape:connector-curvature="0" />
      </g>
    </g>
  </g>
</svg>
