<?xml version="1.0" encoding="UTF-8" standalone="no"?>
<!-- Created with Inkscape (http://www.inkscape.org/) -->

<svg
   xmlns:dc="http://purl.org/dc/elements/1.1/"
   xmlns:cc="http://creativecommons.org/ns#"
   xmlns:rdf="http://www.w3.org/1999/02/22-rdf-syntax-ns#"
   xmlns:svg="http://www.w3.org/2000/svg"
   xmlns="http://www.w3.org/2000/svg"
   xmlns:sodipodi="http://sodipodi.sourceforge.net/DTD/sodipodi-0.dtd"
   xmlns:inkscape="http://www.inkscape.org/namespaces/inkscape"
   width="32"
   height="32"
   id="svg2"
   version="1.1"
   inkscape:version="0.48.4 r9939"
   sodipodi:docname="closeicon.svg"
   inkscape:export-filename="/home/tharbaum/tmp/private_stuff/txt/closeicon.png"
   inkscape:export-xdpi="90"
   inkscape:export-ydpi="90">
  <defs
     id="defs4" />
  <sodipodi:namedview
     id="base"
     pagecolor="#ffffff"
     bordercolor="#666666"
     borderopacity="1.0"
     inkscape:pageopacity="0.0"
     inkscape:pageshadow="2"
     inkscape:zoom="19.15625"
     inkscape:cx="16"
     inkscape:cy="16.026101"
     inkscape:document-units="px"
     inkscape:current-layer="layer1"
     showgrid="true"
     inkscape:window-width="1280"
     inkscape:window-height="1004"
     inkscape:window-x="-2"
     inkscape:window-y="-3"
     inkscape:window-maximized="1">
    <inkscape:grid
       type="xygrid"
       id="grid2985"
       empspacing="5"
       visible="true"
       enabled="true"
       snapvisiblegridlinesonly="true" />
  </sodipodi:namedview>
  <metadata
     id="metadata7">
    <rdf:RDF>
      <cc:Work
         rdf:about="">
        <dc:format>image/svg+xml</dc:format>
        <dc:type
           rdf:resource="http://purl.org/dc/dcmitype/StillImage" />
        <dc:title />
      </cc:Work>
    </rdf:RDF>
  </metadata>
  <g
     inkscape:label="Ebene 1"
     inkscape:groupmode="layer"
     id="layer1"
     transform="translate(0,-1020.3622)">
    <path
       style="fill:#ffffff;fill-opacity:1;fill-rule:nonzero;stroke:none"
       d="m 16,1020.3622 c -8.8365563,0 -16,7.1634 -16,16 0,8.8366 7.1634437,16 16,16 8.836556,0 16,-7.1634 16,-16 0,-8.8366 -7.163444,-16 -16,-16 z m 7,6.9375 c 0.806586,-0.02 1.599496,0.5004 1.902621,1.2481 0.303126,0.7477 0.09626,1.6732 -0.496371,2.2207 l -5.59375,5.5937 5.59375,5.5938 c 0.871083,0.702 0.950352,2.1808 0.159302,2.9718 -0.79105,0.7911 -2.26985,0.7118 -2.971802,-0.1593 L 16,1039.1747 l -5.59375,5.5938 c -0.7393179,0.7597 -2.1101832,0.7652 -2.8555894,0.012 -0.7454062,-0.7537 -0.7247209,-2.1244 0.043089,-2.8553 l 5.59375,-5.5625 -5.59375,-5.5937 c -0.5503079,-0.5254 -0.7577555,-1.3807 -0.5093226,-2.0998 0.2484329,-0.7192 0.9395504,-1.264 1.6968226,-1.3377 0.062454,-0 0.1250458,-0 0.1875,0 0.5368705,0 1.068389,0.2351 1.4375,0.625 l 5.59375,5.5937 5.59375,-5.625 c 0.305756,-0.3182 0.719517,-0.5306 1.15625,-0.5937 0.08257,-0.016 0.166126,-0.026 0.25,-0.031 z"
       id="path2987"
       inkscape:connector-curvature="0"
       sodipodi:nodetypes="ssssscscccscccscccscccccccc" />
  </g>
</svg>
