<?xml version="1.0" encoding="UTF-8" standalone="no"?>
<!-- Created with Inkscape (http://www.inkscape.org/) -->

<svg
   xmlns:dc="http://purl.org/dc/elements/1.1/"
   xmlns:cc="http://creativecommons.org/ns#"
   xmlns:rdf="http://www.w3.org/1999/02/22-rdf-syntax-ns#"
   xmlns:svg="http://www.w3.org/2000/svg"
   xmlns="http://www.w3.org/2000/svg"
   xmlns:xlink="http://www.w3.org/1999/xlink"
   xmlns:sodipodi="http://sodipodi.sourceforge.net/DTD/sodipodi-0.dtd"
   xmlns:inkscape="http://www.inkscape.org/namespaces/inkscape"
   width="64"
   height="64"
   viewBox="0 0 64 64.000002"
   id="svg2"
   version="1.1"
   inkscape:version="0.48.4 r9939"
   sodipodi:docname="icon.svg"
   inkscape:export-xdpi="90"
   inkscape:export-ydpi="90">
  <defs
     id="defs4">
    <linearGradient
       id="linearGradient4159-2"
       inkscape:collect="always">
      <stop
         style="stop-color:#ababff;stop-opacity:1"
         offset="0"
         id="stop4219" />
      <stop
         id="stop4189"
         offset="1"
         style="stop-color:#0000b0;stop-opacity:1" />
    </linearGradient>
    <radialGradient
       inkscape:collect="always"
       xlink:href="#linearGradient4159-2"
       id="radialGradient4165"
       cx="9"
       cy="1028.1622"
       fx="9"
       fy="1028.1622"
       r="13"
       gradientTransform="matrix(0.60007064,0,0,0.60390713,-0.07462054,404.55765)"
       gradientUnits="userSpaceOnUse"
       spreadMethod="pad" />
  </defs>
  <sodipodi:namedview
     id="base"
     pagecolor="#ffffff"
     bordercolor="#666666"
     borderopacity="1.0"
     inkscape:pageopacity="0.0"
     inkscape:pageshadow="2"
     inkscape:zoom="7.919596"
     inkscape:cx="7.6949741"
     inkscape:cy="34.266856"
     inkscape:document-units="px"
     inkscape:current-layer="layer1"
     showgrid="true"
     units="px"
     inkscape:window-width="1280"
     inkscape:window-height="1004"
     inkscape:window-x="-2"
     inkscape:window-y="-3"
     inkscape:window-maximized="1"
     fit-margin-top="0"
     fit-margin-left="0"
     fit-margin-right="0"
     fit-margin-bottom="0">
    <inkscape:grid
       type="xygrid"
       id="grid3336"
       empspacing="5"
       visible="true"
       enabled="true"
       snapvisiblegridlinesonly="true"
       originx="-1.3173673e-09px"
       originy="-6.654646e-05px" />
  </sodipodi:namedview>
  <metadata
     id="metadata7">
    <rdf:RDF>
      <cc:Work
         rdf:about="">
        <dc:format>image/svg+xml</dc:format>
        <dc:type
           rdf:resource="http://purl.org/dc/dcmitype/StillImage" />
        <dc:title />
      </cc:Work>
    </rdf:RDF>
  </metadata>
  <g
     inkscape:label="Layer 1"
     inkscape:groupmode="layer"
     id="layer1"
     transform="translate(0,-988.36213)">
    <ellipse
       style="fill:url(#radialGradient4165);fill-opacity:1;fill-rule:nonzero;stroke:#ffffff;stroke-width:0.61390746;stroke-miterlimit:4;stroke-opacity:1;stroke-dasharray:none"
       id="path3357"
       cx="15.899113"
       cy="1036.4242"
       rx="15.34031"
       ry="15.376954"
       d="m 31.239423,1036.4242 c 0,8.4925 -6.868091,15.3769 -15.34031,15.3769 -8.4722196,0 -15.3403104,-6.8844 -15.3403104,-15.3769 0,-8.4925 6.8680908,-15.377 15.3403104,-15.377 8.472219,0 15.34031,6.8845 15.34031,15.377 z"
       sodipodi:cx="15.899113"
       sodipodi:cy="1036.4242"
       sodipodi:rx="15.34031"
       sodipodi:ry="15.376954"
       transform="matrix(2.0451339,0,0,2.0402602,-0.51581362,-1094.2129)" />
    <rect
       style="fill:#ffffff;fill-opacity:1;fill-rule:nonzero;stroke:none"
       id="rect3781"
       width="46.894035"
       height="31.464466"
       x="9.1161156"
       y="1004.635" />
    <g
       transform="matrix(0.23246968,0,0,0.23246968,-24.477036,865.41718)"
       id="layer1-6"
       inkscape:label="Ebene 1">
      <g
         transform="matrix(2.4872688,0,0,2.4872688,1975.1796,-1793.227)"
         id="g25042">
        <g
           id="g3012"
           transform="matrix(0.79267,0,0,0.79267,-152.23418,210.42434)">
          <rect
             style="fill:#a70b21;fill-opacity:1;stroke:none"
             id="rect24931"
             width="48"
             height="10.4"
             x="-734.26025"
             y="983.72467" />
          <rect
             y="1004.5247"
             x="-734.26025"
             height="10.4"
             width="48"
             id="rect24933"
             style="fill:#144280;fill-opacity:1;stroke:none" />
          <rect
             style="fill:#ffffff;fill-opacity:1;stroke:none"
             id="rect24935"
             width="48"
             height="10.4"
             x="-734.26025"
             y="994.12469" />
        </g>
      </g>
    </g>
    <g
       transform="matrix(0.18416897,0,0,0.18416897,-22.094564,928.60107)"
       id="layer1-56"
       inkscape:label="Ebene 1">
      <g
         transform="matrix(2.4886568,0,0,2.4886568,-1891.0642,-294.69631)"
         id="g25414">
        <rect
           y="320.17548"
           x="880.52979"
           height="31.200001"
           width="16"
           id="rect25258"
           style="fill:#002673;fill-opacity:1;stroke:none" />
        <rect
           style="fill:#ef4231;fill-opacity:1;stroke:none"
           id="rect25260"
           width="16"
           height="31.200001"
           x="912.52979"
           y="320.17548" />
        <rect
           y="320.17548"
           x="896.52979"
           height="31.200001"
           width="16"
           id="rect25262"
           style="fill:#ffffff;fill-opacity:1;stroke:none" />
      </g>
    </g>
    <g
       transform="matrix(0.18416897,0,0,0.18416897,0.48334732,904.52458)"
       id="layer1-9"
       inkscape:label="Layer 1">
      <g
         transform="matrix(2.4886568,0,0,2.4886568,657.09659,-1118.4337)"
         id="g25130">
        <rect
           y="669.54132"
           x="-192.74715"
           height="10.4"
           width="48"
           id="rect25079"
           style="fill:#000000;fill-opacity:1;stroke:none" />
        <rect
           style="fill:#fedd00;fill-opacity:1;stroke:none"
           id="rect25081"
           width="48"
           height="10.4"
           x="-192.74715"
           y="690.34137" />
        <rect
           y="679.94135"
           x="-192.74715"
           height="10.4"
           width="48"
           id="rect25083"
           style="fill:#ef1818;fill-opacity:1;stroke:none" />
      </g>
    </g>
    <g
       transform="matrix(0.18416948,0,0,0.18416948,-10.888376,882.4238)"
       id="layer1-5"
       inkscape:label="Layer 1">
      <g
         transform="matrix(1.9128109,0,0,2.4877369,-2432.918,-1762.4167)"
         id="g13576">
        <rect
           style="fill:#003976"
           x="1331.1294"
           y="976.88855"
           width="62.44297"
           height="31.199999"
           id="rect13513" />
        <path
           style="fill:#ffffff"
           d="m 1663.9062,1221.125 0,4.9375 16.0313,7.9375 -16.0313,0 c 0,4.3646 0,8.7292 0,13.0938 l 16.4063,0 -16.4063,7.9687 0,4.9375 9.0938,0.125 23.4375,-11.5312 0,11.5312 13,0 0,-11.4062 23.0313,11.4062 9.1562,0 0.3438,-4.9688 -16.25,-8.0624 16.25,0 0,-13.0938 -15.9063,0 15.9063,-8.0625 0,-4.7187 -9.2188,-0.094 -23.3125,11.4375 0,-11.4375 -13,0 0,11.4062 -22.8437,-11.4062 z"
           id="polygon13517"
           inkscape:connector-curvature="0"
           sodipodi:nodetypes="ccccccccccccccccccccccccccccc"
           transform="scale(0.8,0.8)" />
        <polygon
           id="polygon13525"
           points="-138.031,607.179 -138.031,608.481 -63.098,608.481 228.858,461.243 154.041,461.243 "
           style="fill:#e03a3e"
           transform="matrix(0.07091489,0,0,0.07091489,1340.9145,964.93813)" />
        <polygon
           id="polygon13527"
           points="742.503,608.481 742.503,571.71 523.711,462.388 448.893,462.388 738.579,608.481 "
           style="fill:#e03a3e"
           transform="matrix(0.07091489,0,0,0.07091489,1340.9145,964.93813)" />
        <polygon
           id="polygon13529"
           points="76.181,314.611 150.998,314.611 -138.031,168.849 -138.031,207.579 "
           style="fill:#e03a3e"
           transform="matrix(0.07091489,0,0,0.07091489,1340.9145,964.93813)" />
        <polygon
           id="polygon13531"
           points="455.011,313.467 742.503,169.818 742.503,168.518 667.608,168.518 380.193,313.467 "
           style="fill:#e03a3e"
           transform="matrix(0.07091489,0,0,0.07091489,1340.9145,964.93813)" />
        <polygon
           id="polygon13533"
           points="-138.031,345.587 -138.031,431.079 247.202,431.079 247.202,608.481 357.27,608.481 357.27,431.079 742.503,431.079 742.503,345.587 357.27,345.587 357.27,168.518 247.202,168.518 247.202,345.587 "
           style="fill:#e03a3e"
           transform="matrix(0.07091489,0,0,0.07091489,1340.9145,964.93813)" />
      </g>
    </g>
  </g>
</svg>
