<?xml version="1.0" encoding="UTF-8" standalone="no"?>
<!-- Created with Inkscape (http://www.inkscape.org/) -->

<svg
   xmlns:dc="http://purl.org/dc/elements/1.1/"
   xmlns:cc="http://creativecommons.org/ns#"
   xmlns:rdf="http://www.w3.org/1999/02/22-rdf-syntax-ns#"
   xmlns:svg="http://www.w3.org/2000/svg"
   xmlns="http://www.w3.org/2000/svg"
   xmlns:xlink="http://www.w3.org/1999/xlink"
   xmlns:sodipodi="http://sodipodi.sourceforge.net/DTD/sodipodi-0.dtd"
   xmlns:inkscape="http://www.inkscape.org/namespaces/inkscape"
   width="64"
   height="64"
   viewBox="0 0 64 64.000002"
   id="svg2"
   version="1.1"
   inkscape:version="0.91 r13725"
   sodipodi:docname="icon.svg"
   inkscape:export-filename="D:\ft-c\ftcommunity-apps\packages\settings\icon.png"
   inkscape:export-xdpi="90"
   inkscape:export-ydpi="90">
  <defs
     id="defs4">
    <linearGradient
       id="linearGradient4159-2"
       inkscape:collect="always">
      <stop
         style="stop-color:#ababff;stop-opacity:1"
         offset="0"
         id="stop4219" />
      <stop
         id="stop4189"
         offset="1"
         style="stop-color:#0000b0;stop-opacity:1" />
    </linearGradient>
    <radialGradient
       inkscape:collect="always"
       xlink:href="#linearGradient4159-2"
       id="radialGradient4165"
       cx="9"
       cy="1028.1622"
       fx="9"
       fy="1028.1622"
       r="13"
       gradientTransform="matrix(0.60007064,0,0,0.60390713,-0.07462054,404.55765)"
       gradientUnits="userSpaceOnUse"
       spreadMethod="pad" />
  </defs>
  <sodipodi:namedview
     id="base"
     pagecolor="#ffffff"
     bordercolor="#666666"
     borderopacity="1.0"
     inkscape:pageopacity="0.0"
     inkscape:pageshadow="2"
     inkscape:zoom="7.919596"
     inkscape:cx="8.4726772"
     inkscape:cy="32.783219"
     inkscape:document-units="px"
     inkscape:current-layer="layer1"
     showgrid="true"
     units="px"
     inkscape:window-width="1920"
     inkscape:window-height="976"
     inkscape:window-x="-8"
     inkscape:window-y="-8"
     inkscape:window-maximized="1"
     fit-margin-top="0"
     fit-margin-left="0"
     fit-margin-right="0"
     fit-margin-bottom="0">
    <inkscape:grid
       type="xygrid"
       id="grid3336"
       empspacing="5"
       visible="true"
       enabled="true"
       snapvisiblegridlinesonly="true"
       originx="-1.3173673e-09px"
       originy="-6.654646e-05px" />
  </sodipodi:namedview>
  <metadata
     id="metadata7">
    <rdf:RDF>
      <cc:Work
         rdf:about="">
        <dc:format>image/svg+xml</dc:format>
        <dc:type
           rdf:resource="http://purl.org/dc/dcmitype/StillImage" />
        <dc:title />
      </cc:Work>
    </rdf:RDF>
  </metadata>
  <g
     inkscape:label="Layer 1"
     inkscape:groupmode="layer"
     id="layer1"
     transform="translate(0,-988.36213)">
    <ellipse
       style="fill:url(#radialGradient4165);fill-opacity:1;fill-rule:nonzero;stroke:#ffffff;stroke-width:0.61390746;stroke-miterlimit:4;stroke-opacity:1;stroke-dasharray:none"
       id="path3357"
       cx="15.899113"
       cy="1036.4242"
       rx="15.34031"
       ry="15.376954"
       sodipodi:cx="15.899113"
       sodipodi:cy="1036.4242"
       sodipodi:rx="15.34031"
       sodipodi:ry="15.376954"
       transform="matrix(2.0451339,0,0,2.0402602,-0.51581362,-1094.2129)" />
    <g
       id="g3342"
       transform="matrix(0.13197682,0,0,0.133774,-1.9702976,985.88051)">
      <path
         id="path3344"
         d="m 256.8,160 c -25.7,0 -49.8,10 -67.9,28.1 -18.1,18.1 -28.1,42.2 -28.1,67.9 0,25.7 10,49.7 28.1,67.9 18.1,18.1 42.3,28.1 67.9,28.1 25.7,0 49.8,-10 67.9,-28.1 18.1,-18.1 28.1,-42.2 28.1,-67.9 0,-25.7 -10,-49.7 -28.1,-67.9 C 306.6,170 282.5,160 256.8,160 Z m 0,176 c -44.3,0 -80,-35.9 -80,-80 0,-44.1 35.7,-80 80,-80 44.3,0 80,35.9 80,80 0,44.1 -35.7,80 -80,80 z"
         inkscape:connector-curvature="0" />
      <path
         id="path3346"
         d="m 424.5,216 -15.2,0 c -12.4,0 -22.8,-10.4 -22.8,-23.2 0,-6.4 2.7,-12.1 7.5,-16.4 l 9.8,-9.6 c 9.7,-9.6 9.7,-25.2 0,-34.9 l -22.3,-22.1 c -4.4,-4.4 -10.9,-7 -17.5,-7 -6.6,0 -13,2.6 -17.5,7 l -9.4,9.4 c -4.5,5 -10.7,7.7 -17.2,7.7 -12.8,0 -23.7,-10.4 -23.7,-22.7 l 0,-15.1 C 296.2,75.6 285.7,64 272.2,64 l -30.4,0 C 228,64 217,75.5 217,89.1 l 0,15.2 c 0,12.3 -10.6,22.7 -23.4,22.7 -6.4,0 -12.2,-2.7 -16.6,-7.4 l -9.7,-9.6 c -4.4,-4.5 -10.9,-7 -17.5,-7 -6.6,0 -13,2.6 -17.5,7 L 110,132 c -9.6,9.6 -9.6,25.3 0,34.8 l 9.4,9.4 c 5,4.5 7.8,10.2 7.8,16.7 0,12.8 -10.4,23.2 -22.8,23.2 l -15.2,0 C 75.5,216 64,227.2 64,240.8 l 0,15.2 0,15.2 c 0,13.5 11.5,24.8 25.2,24.8 l 15.2,0 c 12.4,0 22.8,10.4 22.8,23.2 0,6.4 -2.8,12.3 -7.8,16.8 l -9.4,9.2 c -9.6,9.6 -9.6,25.2 0,34.8 l 22.3,22.2 c 4.4,4.5 10.9,7 17.5,7 6.6,0 13,-2.6 17.5,-7 l 9.7,-9.6 c 4.2,-4.7 10.1,-7.4 16.5,-7.4 12.8,0 23.4,10.4 23.4,22.7 l 0,15.2 c 0,13.5 11,25.1 24.7,25.1 l 30.4,0 c 13.6,0 24.9,-11.5 24.9,-25.1 l 0,-15.2 c 0,-12.3 10.5,-22.7 23.3,-22.7 6.4,0 12.3,2.8 16.9,7.7 l 9.4,9.4 c 4.5,4.4 10.9,7 17.5,7 6.6,0 13,-2.6 17.5,-7 l 22.3,-22.2 c 9.6,-9.6 9.6,-25.3 0,-34.9 l -9.8,-9.6 c -4.8,-4.3 -7.5,-10.4 -7.5,-16.7 0,-12.8 10.4,-23.6 22.8,-23.6 l 15.2,0 c 13.6,0 23.3,-10.3 23.3,-23.9 l 0,-15.4 0,-15.2 c 0,-13.6 -9.7,-24.8 -23.3,-24.8 z m 7.5,40 0,15.1 c 0,4.2 -2.3,7.9 -7.3,7.9 l -15.2,0 c -10.3,0 -20.1,4.4 -27.5,12 -7.3,7.5 -11.3,17.4 -11.3,27.8 0,10.8 4.4,20.8 12.5,28.2 l 9.5,9.4 c 3.3,3.4 3.3,9 0,12.3 l -22.3,22.2 c -1.6,1.5 -3.9,2.4 -6.3,2.4 -2.4,0 -4.8,-0.9 -6.3,-2.4 l -9.1,-9.1 c -7.7,-8.1 -17.8,-12.6 -28.5,-12.6 -10.4,0 -20,4 -27.5,11.2 -7.6,7.4 -11.6,17.1 -11.6,27.5 l 0,15.2 c 0,4.9 -4.3,9.1 -8.9,9.1 l -30.4,0 c -4.6,0 -8.7,-4.2 -8.7,-9.1 l 0,-15.2 c 0,-10.3 -4.1,-20.1 -11.7,-27.5 -7.5,-7.2 -17.3,-11.2 -27.6,-11.2 -10.6,0 -20.8,4.5 -28.1,12.4 l -9.3,9.3 c -1.6,1.5 -3.9,2.4 -6.3,2.4 -2.4,0 -4.8,-0.8 -6.1,-2.2 l -0.1,-0.1 -0.1,-0.1 -22.3,-22.2 c -3.3,-3.3 -3.3,-8.8 0,-12.2 l 9.1,-9 c 8.2,-7.6 12.7,-17.7 12.7,-28.5 0,-10.4 -4,-19.9 -11.3,-27.4 -7.4,-7.6 -17.2,-11.5 -27.5,-11.5 l -15.3,0 c -5,0 -9.2,-4.3 -9.2,-8.8 l 0,-15.3 0,-15.2 c 0,-4.5 4.2,-8.8 9.2,-8.8 l 15.2,0 c 10.3,0 20.1,-3.9 27.5,-11.5 7.3,-7.5 11.3,-17.2 11.3,-27.5 0,-10.8 -4.5,-20.9 -12.7,-28.4 l -9.2,-9.1 c -2.2,-2.2 -2.5,-4.7 -2.5,-6.1 0,-1.3 0.3,-3.9 2.5,-6.1 l 22.2,-22.1 c 1.6,-1.5 3.9,-2.4 6.3,-2.4 2.4,0 4.8,0.8 6.1,2.2 l 0.1,0.1 0.1,0.1 9.4,9.4 c 7.4,8 17.4,12.4 28.1,12.4 10.4,0 20.1,-4 27.6,-11.2 7.6,-7.4 11.8,-17.1 11.8,-27.5 l 0,-15.2 c 0,-4.9 4,-9.1 8.5,-9.1 l 30.5,0 c 4.5,0 8,4.2 8,9.1 l 0,15.2 c 0,10.3 4.4,20.1 12,27.5 7.5,7.2 17.4,11.2 27.8,11.2 10.8,0 21,-4.5 28.6,-12.6 l 9.1,-9.1 c 1.6,-1.5 3.9,-2.4 6.3,-2.4 2.4,0 4.8,0.9 6.3,2.3 l 22.3,22.1 c 1.6,1.6 2.6,3.8 2.6,6.1 0,2.3 -0.9,4.5 -2.5,6.1 l -9.5,9.4 c -8,7.4 -12.5,17.4 -12.5,28.2 0,10.4 4,19.9 11.3,27.4 7.4,7.6 17.2,11.5 27.5,11.5 l 15.2,0 c 5.4,0 7.4,5 7.5,9 l 0,15 z"
         inkscape:connector-curvature="0" />
    </g>
  </g>
</svg>
