<?xml version="1.0" encoding="UTF-8" standalone="no"?>
<!-- Created with Inkscape (http://www.inkscape.org/) -->

<svg
   xmlns:dc="http://purl.org/dc/elements/1.1/"
   xmlns:cc="http://creativecommons.org/ns#"
   xmlns:rdf="http://www.w3.org/1999/02/22-rdf-syntax-ns#"
   xmlns:svg="http://www.w3.org/2000/svg"
   xmlns="http://www.w3.org/2000/svg"
   xmlns:xlink="http://www.w3.org/1999/xlink"
   xmlns:sodipodi="http://sodipodi.sourceforge.net/DTD/sodipodi-0.dtd"
   xmlns:inkscape="http://www.inkscape.org/namespaces/inkscape"
   width="64"
   height="64"
   viewBox="0 0 64 64.000002"
   id="svg2"
   version="1.1"
   inkscape:version="0.91 r13725"
   sodipodi:docname="icon.svg"
   inkscape:export-filename="D:\github\ft-c\ftcommunity-TXT-fork\board\fischertechnik\TXT\rootfs\opt\ftc\apps\system\settings-V2\icon.png"
   inkscape:export-xdpi="90"
   inkscape:export-ydpi="90">
  <defs
     id="defs4">
    <linearGradient
       id="linearGradient4159-2"
       inkscape:collect="always">
      <stop
         style="stop-color:#ababff;stop-opacity:1"
         offset="0"
         id="stop4219" />
      <stop
         id="stop4189"
         offset="1"
         style="stop-color:#0000b0;stop-opacity:1" />
    </linearGradient>
    <radialGradient
       inkscape:collect="always"
       xlink:href="#linearGradient4159-2"
       id="radialGradient4165"
       cx="9"
       cy="1028.1622"
       fx="9"
       fy="1028.1622"
       r="13"
       gradientTransform="matrix(0.60007064,0,0,0.60390713,-0.07462054,404.55765)"
       gradientUnits="userSpaceOnUse"
       spreadMethod="pad" />
  </defs>
  <sodipodi:namedview
     id="base"
     pagecolor="#ffffff"
     bordercolor="#666666"
     borderopacity="1.0"
     inkscape:pageopacity="0.0"
     inkscape:pageshadow="2"
     inkscape:zoom="5.6"
     inkscape:cx="3.4783678"
     inkscape:cy="8.700966"
     inkscape:document-units="px"
     inkscape:current-layer="layer1"
     showgrid="true"
     units="px"
     inkscape:window-width="1280"
     inkscape:window-height="920"
     inkscape:window-x="1912"
     inkscape:window-y="-8"
     inkscape:window-maximized="1"
     fit-margin-top="0"
     fit-margin-left="0"
     fit-margin-right="0"
     fit-margin-bottom="0">
    <inkscape:grid
       type="xygrid"
       id="grid3336"
       empspacing="5"
       visible="true"
       enabled="true"
       snapvisiblegridlinesonly="true"
       originx="-1.3173673e-09px"
       originy="-6.654646e-05px" />
  </sodipodi:namedview>
  <metadata
     id="metadata7">
    <rdf:RDF>
      <cc:Work
         rdf:about="">
        <dc:format>image/svg+xml</dc:format>
        <dc:type
           rdf:resource="http://purl.org/dc/dcmitype/StillImage" />
        <dc:title />
      </cc:Work>
    </rdf:RDF>
  </metadata>
  <g
     inkscape:label="Layer 1"
     inkscape:groupmode="layer"
     id="layer1"
     transform="translate(0,-988.36213)">
    <ellipse
       style="fill:url(#radialGradient4165);fill-opacity:1;fill-rule:nonzero;stroke:#ffffff;stroke-width:0.61390746;stroke-miterlimit:4;stroke-opacity:1;stroke-dasharray:none"
       id="path3357"
       cx="15.899113"
       cy="1036.4242"
       rx="15.34031"
       ry="15.376954"
       sodipodi:cx="15.899113"
       sodipodi:cy="1036.4242"
       sodipodi:rx="15.34031"
       sodipodi:ry="15.376954"
       transform="matrix(2.0451339,0,0,2.0402602,-0.51581362,-1094.2129)" />
    <path
       id="path4188"
       d="m 31.996501,1011.2308 c -5.039101,0 -9.12707,4.0876 -9.12707,9.1313 0,5.0383 4.087969,9.1351 9.12707,9.1351 5.040875,0 9.098918,-4.0969 9.098918,-9.1351 -4.9e-5,-5.0437 -4.058091,-9.1313 -9.098918,-9.1313 z m 18.299891,14.3774 -1.64508,3.9608 2.93429,5.7624 0.3875,0.7644 -4.068645,4.0664 -6.67523,-3.1511 -3.962918,1.6273 -2.011431,6.1577 -0.257129,0.816 -5.750665,0 -2.488694,-6.9514 -3.962921,-1.6331 -5.771653,2.9274 -0.760857,0.3821 -4.06686,-4.0669 3.149199,-6.6779 -1.632726,-3.9615 -6.1470774,-2.0052 -0.8154946,-0.2669 0,-5.7444 6.955357,-2.4945 1.632734,-3.9543 -2.925497,-5.7745 -0.385742,-0.7574 4.061548,-4.063 6.684145,3.1453 3.957657,-1.6344 2.009614,-6.15445 0.258935,-0.81487 5.748887,0 2.490518,6.95952 3.95234,1.6348 5.773525,-2.9288 0.767907,-0.3847 4.06509,4.061 -3.149201,6.6726 1.627456,3.9669 6.16455,2.0069 0.810177,0.262 0,5.7426 -6.953608,2.5032 z"
       inkscape:connector-curvature="0"
       inkscape:export-xdpi="90"
       inkscape:export-ydpi="90" />
  </g>
</svg>
