<?xml version="1.0" encoding="UTF-8" standalone="no"?>
<svg
   xmlns:dc="http://purl.org/dc/elements/1.1/"
   xmlns:cc="http://creativecommons.org/ns#"
   xmlns:rdf="http://www.w3.org/1999/02/22-rdf-syntax-ns#"
   xmlns:svg="http://www.w3.org/2000/svg"
   xmlns="http://www.w3.org/2000/svg"
   xmlns:sodipodi="http://sodipodi.sourceforge.net/DTD/sodipodi-0.dtd"
   xmlns:inkscape="http://www.inkscape.org/namespaces/inkscape"
   height="32px"
   version="1.1"
   viewBox="0 0 32 32"
   width="32px"
   id="svg2"
   inkscape:version="0.91 r13725"
   sodipodi:docname="prerelease.svg"
   inkscape:export-filename="D:\github\ft-c\ftcommunity-TXT\board\fischertechnik\TXT\rootfs\opt\ftc\apps\system\update\prerelease.png"
   inkscape:export-xdpi="90"
   inkscape:export-ydpi="90">
  <metadata
     id="metadata13">
    <rdf:RDF>
      <cc:Work
         rdf:about="">
        <dc:format>image/svg+xml</dc:format>
        <dc:type
           rdf:resource="http://purl.org/dc/dcmitype/StillImage" />
      </cc:Work>
    </rdf:RDF>
  </metadata>
  <sodipodi:namedview
     pagecolor="#ffffff"
     bordercolor="#666666"
     borderopacity="1"
     objecttolerance="10"
     gridtolerance="10"
     guidetolerance="10"
     inkscape:pageopacity="0"
     inkscape:pageshadow="2"
     inkscape:window-width="1920"
     inkscape:window-height="976"
     id="namedview11"
     showgrid="false"
     inkscape:zoom="7.375"
     inkscape:cx="-13.627119"
     inkscape:cy="16"
     inkscape:window-x="-8"
     inkscape:window-y="-8"
     inkscape:window-maximized="1"
     inkscape:current-layer="svg2" />
  <title
     id="title4" />
  <defs
     id="defs6" />
  <g
     id="Icons new Arranged Names Color"
     transform="matrix(1.2420128,0,0,1.2420128,-3.8706528,-3.9305192)"
     style="fill:none;fill-rule:evenodd;stroke:none;stroke-width:1">
    <g
       id="101 Warning"
       style="fill:#ff0000">
      <path
         d="m 14.424233,6.1483927 c 0.870066,-1.4076629 2.282795,-1.4043083 3.150787,0 L 28.36011,23.59738 C 29.521639,25.476595 28.675546,27 26.471407,27 L 5.5278464,27 C 3.3232156,27 2.4738632,25.482664 3.6391433,23.59738 Z M 16,20 c 0.552285,0 1,-0.453036 1,-0.99703 l 0,-6.00594 C 17,12.446386 16.556135,12 16,12 c -0.552285,0 -1,0.453036 -1,0.99703 l 0,6.00594 C 15,19.553614 15.443865,20 16,20 Z m 0,4 c 0.552285,0 1,-0.447715 1,-1 0,-0.552285 -0.447715,-1 -1,-1 -0.552285,0 -1,0.447715 -1,1 0,0.552285 0.447715,1 1,1 z m 0,0"
         id="Triangle 29"
         inkscape:connector-curvature="0" />
    </g>
  </g>
</svg>
