<?xml version="1.0" standalone="no"?>
<!DOCTYPE svg PUBLIC "-//W3C//DTD SVG 20010904//EN"
 "http://www.w3.org/TR/2001/REC-SVG-20010904/DTD/svg10.dtd">
<svg version="1.0" xmlns="http://www.w3.org/2000/svg"
 width="64.000000pt" height="64.000000pt" viewBox="0 0 64.000000 64.000000"
 preserveAspectRatio="xMidYMid meet">
<metadata>
Created by potrace 1.13, written by Peter Selinger 2001-2015
</metadata>
<g transform="translate(0.000000,64.000000) scale(0.100000,-0.100000)"
fill="#000000" stroke="none">
<path d="M263 620 c-70 -14 -82 -25 -81 -70 0 -25 -6 -48 -17 -59 -16 -18 -15
-19 14 -26 35 -8 71 -48 71 -79 0 -19 -23 -63 -40 -76 -4 -3 -12 -15 -19 -27
-14 -28 -71 -33 -71 -8 0 21 28 75 39 75 15 0 22 33 10 44 -8 8 -15 5 -26 -11
-18 -27 -61 -31 -70 -7 -3 9 1 31 10 49 14 30 14 34 1 39 -27 10 -31 7 -49
-36 -10 -26 -18 -70 -18 -110 0 -168 133 -301 303 -301 121 0 218 60 271 169
76 153 17 331 -134 403 -70 33 -132 43 -194 31z m86 -217 c-1 -96 -11 -138
-35 -141 -27 -4 -34 19 -34 121 l0 77 35 0 35 0 -1 -57z m166 51 c17 -7 45
-54 45 -78 0 -8 -13 -30 -28 -48 -16 -18 -31 -41 -35 -50 -8 -23 -67 -25 -67
-3 0 21 28 75 39 75 15 0 22 33 11 44 -8 8 -16 4 -29 -12 -12 -16 -25 -23 -42
-20 -32 4 -36 37 -9 71 17 21 30 27 60 27 21 0 46 -3 55 -6z m-327 -241 c3
-32 2 -33 -32 -33 -33 0 -36 3 -36 28 0 36 8 44 40 40 20 -2 26 -9 28 -35z
m160 0 c3 -32 2 -33 -32 -33 -33 0 -36 3 -36 28 0 36 8 44 40 40 20 -2 26 -9
28 -35z m150 0 c3 -32 2 -33 -32 -33 -33 0 -36 3 -36 28 0 16 3 32 7 36 4 4
19 6 33 4 20 -2 26 -9 28 -35z"/>
</g>
</svg>
